<svg xmlns="http://www.w3.org/2000/svg" viewBox="0 0 512 512" fill="none">
  <defs>
    <linearGradient id="bg" x1="0" y1="0" x2="1" y2="1">
      <stop offset="0%" stop-color="#141821"/>
      <stop offset="100%" stop-color="#0b0d12"/>
    </linearGradient>
    <linearGradient id="metal" x1="0" y1="0" x2="1" y2="1">
      <stop offset="0%" stop-color="#d2bc8a"/>
      <stop offset="50%" stop-color="#a98a55"/>
      <stop offset="100%" stop-color="#d2bc8a"/>
    </linearGradient>
    <linearGradient id="steel" x1="0" y1="0" x2="0" y2="1">
      <stop offset="0%" stop-color="#ced6e1" stop-opacity="0.85"/>
      <stop offset="100%" stop-color="#7d8798" stop-opacity="0.65"/>
    </linearGradient>
    <radialGradient id="coreGlow" cx="50%" cy="50%" r="50%">
      <stop offset="0%" stop-color="#d2bc8a" stop-opacity="0.28"/>
      <stop offset="100%" stop-color="#d2bc8a" stop-opacity="0"/>
    </radialGradient>
    <clipPath id="shieldClip">
      <path d="M256 34L394 84V214C394 319 334 409 256 454C178 409 118 319 118 214V84L256 34Z"/>
    </clipPath>
    <path id="ringTop" d="M112 256C112 176.471 176.471 112 256 112C335.529 112 400 176.471 400 256"/>
    <path id="ringBottom" d="M400 256C400 335.529 335.529 400 256 400C176.471 400 112 335.529 112 256"/>
  </defs>

  <rect width="512" height="512" rx="36" fill="url(#bg)"/>

  <path d="M256 34L394 84V214C394 319 334 409 256 454C178 409 118 319 118 214V84L256 34Z" fill="#10141c" stroke="url(#metal)" stroke-width="5"/>
  <path d="M256 58L374 101V214C374 308 322 388 256 428C190 388 138 308 138 214V101L256 58Z" fill="#11161f" stroke="rgba(210,188,138,0.24)" stroke-width="2"/>

  <g clip-path="url(#shieldClip)">
    <rect x="90" y="90" width="332" height="332" fill="url(#coreGlow)"/>

    <g opacity="0.2" stroke="#b2bdd0" stroke-width="1">
      <path d="M84 148H428"/>
      <path d="M84 202H428"/>
      <path d="M84 256H428"/>
      <path d="M84 310H428"/>
      <path d="M84 364H428"/>
      <path d="M148 84V428"/>
      <path d="M202 84V428"/>
      <path d="M256 84V428"/>
      <path d="M310 84V428"/>
      <path d="M364 84V428"/>
    </g>

    <circle cx="256" cy="248" r="104" stroke="rgba(210,188,138,0.28)" stroke-width="1.5"/>
    <circle cx="256" cy="248" r="76" stroke="rgba(210,188,138,0.22)" stroke-width="1.2"/>
    <circle cx="256" cy="248" r="48" stroke="rgba(210,188,138,0.18)" stroke-width="1"/>

    <g stroke="url(#steel)" stroke-width="3.5" stroke-linecap="round" stroke-linejoin="round">
      <path d="M256 134L338 181V275L256 322L174 275V181L256 134Z"/>
      <path d="M256 170L307 199V257L256 286L205 257V199L256 170Z" opacity="0.85"/>
      <path d="M256 198V248"/>
      <path d="M214 223H298"/>
      <path d="M174 181L256 248L338 181" opacity="0.7"/>
      <path d="M174 275L256 248L338 275" opacity="0.7"/>
    </g>

    <g fill="#d2bc8a">
      <circle cx="256" cy="134" r="5.5"/>
      <circle cx="338" cy="181" r="5"/>
      <circle cx="338" cy="275" r="5"/>
      <circle cx="256" cy="322" r="5.5"/>
      <circle cx="174" cy="275" r="5"/>
      <circle cx="174" cy="181" r="5"/>
      <circle cx="256" cy="248" r="8"/>
    </g>

    <g opacity="0.3" stroke="#d2bc8a" stroke-width="1.2">
      <path d="M110 120L160 120"/>
      <path d="M352 120L402 120"/>
      <path d="M110 376L160 376"/>
      <path d="M352 376L402 376"/>
    </g>
  </g>

  <circle cx="256" cy="256" r="166" stroke="rgba(210,188,138,0.26)" stroke-width="1.5"/>
  <circle cx="256" cy="256" r="182" stroke="rgba(210,188,138,0.12)" stroke-width="1"/>

  <text font-family="'Instrument Sans','Segoe UI',sans-serif" font-size="15" font-weight="700" fill="#d2bc8a" letter-spacing="0.34em">
    <textPath href="#ringTop" startOffset="50%" text-anchor="middle">ASHAR HOMELAB</textPath>
  </text>
  <text font-family="'Instrument Sans','Segoe UI',sans-serif" font-size="12.5" font-weight="600" fill="#92a0b6" letter-spacing="0.22em">
    <textPath href="#ringBottom" startOffset="50%" text-anchor="middle">SECURITY • OBSERVABILITY • AUTOMATION</textPath>
  </text>

  <g fill="#d2bc8a" opacity="0.75">
    <circle cx="88" cy="256" r="4"/>
    <circle cx="424" cy="256" r="4"/>
  </g>
</svg>
